{
	"asset":{
		"generator":"Khronos glTF Blender I/O v4.3.47",
		"version":"2.0"
	},
	"scene":0,
	"scenes":[
		{
			"name":"Scene",
			"nodes":[
				0,
				1,
				2,
				3,
				4
			]
		}
	],
	"nodes":[
		{
			"name":"Area.001",
			"rotation":[
				0,
				-0.8970527648925781,
				0.44192343950271606,
				2.1814692274801928e-07
			],
			"scale":[
				-204.234130859375,
				-204.23410034179688,
				-204.23410034179688
			],
			"translation":[
				1.4655382633209229,
				-1.5732345581054688,
				52.963863372802734
			]
		},
		{
			"name":"Point",
			"rotation":[
				-0.1659494787454605,
				0,
				0,
				0.9861342310905457
			],
			"scale":[
				174.29129028320312,
				41.62295150756836,
				16.438369750976562
			],
			"translation":[
				5.843344688415527,
				-0.3864479064941406,
				6.124183654785156
			]
		},
		{
			"name":"Area.002",
			"rotation":[
				-0.6157868504524231,
				0,
				0,
				0.7879127860069275
			],
			"scale":[
				98.38699340820312,
				18.1052303314209,
				18.1052303314209
			],
			"translation":[
				3.5902881622314453,
				38.21349334716797,
				4.575958251953125
			]
		},
		{
			"name":"Point.001",
			"rotation":[
				-0.36462995409965515,
				0,
				0,
				0.9311525225639343
			],
			"scale":[
				196.67320251464844,
				98.27326202392578,
				16.535125732421875
			],
			"translation":[
				-21.184274673461914,
				6.679111480712891,
				13.975658416748047
			]
		},
		{
			"mesh":0,
			"name":"path1.001"
		}
	],
	"materials":[
		{
			"doubleSided":true,
			"name":"Material.005",
			"pbrMetallicRoughness":{
				"baseColorFactor":[
					0.014556088484823704,
					0.028318461030721664,
					0.15268348157405853,
					1
				],
				"metallicFactor":0,
				"roughnessFactor":0.5
			}
		},
		{
			"doubleSided":true,
			"name":"Material.006",
			"pbrMetallicRoughness":{
				"baseColorFactor":[
					0.46023625135421753,
					0.105027936398983,
					0.033690765500068665,
					1
				],
				"metallicFactor":0,
				"roughnessFactor":0.5
			}
		}
	],
	"meshes":[
		{
			"name":"path1.003",
			"primitives":[
				{
					"attributes":{
						"POSITION":0,
						"NORMAL":1,
						"TEXCOORD_0":2
					},
					"indices":3,
					"material":0
				},
				{
					"attributes":{
						"POSITION":4,
						"NORMAL":5,
						"TEXCOORD_0":6
					},
					"indices":7,
					"material":1
				}
			]
		}
	],
	"accessors":[
		{
			"bufferView":0,
			"componentType":5126,
			"count":47666,
			"max":[
				20.91930389404297,
				0.7835426330566406,
				-3.040621757507324
			],
			"min":[
				-5.685558319091797,
				-4.304738521575928,
				-4.1329851150512695
			],
			"type":"VEC3"
		},
		{
			"bufferView":1,
			"componentType":5126,
			"count":47666,
			"type":"VEC3"
		},
		{
			"bufferView":2,
			"componentType":5126,
			"count":47666,
			"type":"VEC2"
		},
		{
			"bufferView":3,
			"componentType":5123,
			"count":100776,
			"type":"SCALAR"
		},
		{
			"bufferView":4,
			"componentType":5126,
			"count":42785,
			"max":[
				17.829307556152344,
				1.516014575958252,
				-3.040618658065796
			],
			"min":[
				-4.862595558166504,
				-4.709577560424805,
				-4.13298225402832
			],
			"type":"VEC3"
		},
		{
			"bufferView":5,
			"componentType":5126,
			"count":42785,
			"type":"VEC3"
		},
		{
			"bufferView":6,
			"componentType":5126,
			"count":42785,
			"type":"VEC2"
		},
		{
			"bufferView":7,
			"componentType":5123,
			"count":89100,
			"type":"SCALAR"
		}
	],
	"bufferViews":[
		{
			"buffer":0,
			"byteLength":571992,
			"byteOffset":0,
			"target":34962
		},
		{
			"buffer":0,
			"byteLength":571992,
			"byteOffset":571992,
			"target":34962
		},
		{
			"buffer":0,
			"byteLength":381328,
			"byteOffset":1143984,
			"target":34962
		},
		{
			"buffer":0,
			"byteLength":201552,
			"byteOffset":1525312,
			"target":34963
		},
		{
			"buffer":0,
			"byteLength":513420,
			"byteOffset":1726864,
			"target":34962
		},
		{
			"buffer":0,
			"byteLength":513420,
			"byteOffset":2240284,
			"target":34962
		},
		{
			"buffer":0,
			"byteLength":342280,
			"byteOffset":2753704,
			"target":34962
		},
		{
			"buffer":0,
			"byteLength":178200,
			"byteOffset":3095984,
			"target":34963
		}
	],
	"buffers":[
		{
			"byteLength":3274184,
			"uri":"logo%203.bin"
		}
	]
}
